<?xml version="1.0" encoding="utf-8"?>
<!-- Generator: Adobe Illustrator 16.0.0, SVG Export Plug-In . SVG Version: 6.00 Build 0)  -->
<!DOCTYPE svg PUBLIC "-//W3C//DTD SVG 1.1//EN" "http://www.w3.org/Graphics/SVG/1.1/DTD/svg11.dtd">
<svg version="1.1" id="Simplified_Final" xmlns="http://www.w3.org/2000/svg" xmlns:xlink="http://www.w3.org/1999/xlink" x="0px"
	 y="0px" width="462px" height="63px" viewBox="0 0 462 63" enable-background="new 0 0 462 63" xml:space="preserve">
<g>
	<g>
		<path fill="#005695" d="M350.983,26.243c-2.926-1.632-6.279-2.459-9.969-2.459c-2.736,0-5.293,0.524-7.602,1.557
			c-2.01,0.9-3.748,2.188-5.184,3.837V11.893h-7.521v50.581h7.239v-5.287c1.438,1.727,3.198,3.087,5.247,4.047
			c2.352,1.106,4.983,1.667,7.82,1.667c3.69,0,7.043-0.827,9.969-2.459c2.935-1.635,5.262-3.962,6.918-6.917
			c1.656-2.952,2.496-6.391,2.496-10.22c0-3.828-0.84-7.251-2.496-10.181C356.243,30.192,353.917,27.877,350.983,26.243z
			 M340.446,30.456c2.341,0,4.469,0.534,6.322,1.586c1.85,1.052,3.334,2.571,4.41,4.515c1.076,1.946,1.623,4.215,1.623,6.748
			c0,2.531-0.547,4.803-1.623,6.752c-1.078,1.947-2.562,3.478-4.413,4.55c-1.853,1.075-3.979,1.621-6.319,1.621
			c-2.297,0-4.41-0.546-6.286-1.621c-1.873-1.072-3.357-2.602-4.41-4.547c-1.054-1.95-1.59-4.223-1.59-6.755s0.536-4.803,1.59-6.75
			c1.052-1.942,2.534-3.46,4.407-4.511C336.034,30.99,338.149,30.456,340.446,30.456z"/>
		<rect x="406.614" y="24.14" fill="#005695" width="7.521" height="38.334"/>
		<rect x="421.51" y="11.893" fill="#005695" width="7.525" height="50.581"/>
		<path fill="#005695" d="M459.21,54.452l-0.361,0.293c-1.394,1.125-3.111,1.695-5.104,1.695c-1.784,0-3.164-0.512-4.108-1.521
			c-0.95-1.013-1.431-2.509-1.431-4.443v-20.02h10.793V24.14h-10.793v-8.237h-7.524v8.237h-6.39v6.316h6.39V50.76
			c0,3.869,1.088,6.892,3.233,8.986c2.139,2.092,5.184,3.154,9.05,3.154c1.59,0,3.154-0.232,4.648-0.689
			c1.506-0.46,2.79-1.142,3.819-2.023l0.197-0.17L459.21,54.452z"/>
		<path fill="#005695" d="M392.336,45.36c0,3.532-0.851,6.233-2.53,8.028c-1.609,1.719-4.262,2.673-7.468,2.688
			c-3.208-0.016-5.86-0.97-7.468-2.688c-1.681-1.793-2.531-4.496-2.531-8.028V24.143h-7.523v21.998
			c0,5.472,1.495,9.678,4.439,12.501c2.816,2.701,7.504,4.25,12.863,4.25h0.438c5.357,0,10.045-1.549,12.863-4.25
			c2.943-2.823,4.438-7.029,4.438-12.501V24.143h-7.521V45.36z"/>
		<path fill="#005695" d="M410.374,11.182c-1.325,0-2.426,0.439-3.303,1.313c-0.875,0.877-1.312,1.931-1.312,3.16
			c0,1.232,0.438,2.272,1.312,3.125c0.877,0.852,1.978,1.278,3.303,1.278c1.324,0,2.426-0.437,3.303-1.312
			c0.876-0.876,1.312-1.954,1.312-3.233c0-1.229-0.437-2.259-1.312-3.087C412.8,11.596,411.698,11.182,410.374,11.182z"/>
		<path fill="#005695" d="M168.16,25.525c-1.976,0.967-3.566,2.321-4.744,4.034v-5.42h-7.24v38.334h7.525v-19.1
			c0-3.957,1.03-7.035,3.06-9.156c2.027-2.12,4.867-3.194,8.442-3.194c0.64,0,1.149,0.023,1.52,0.069l0.398,0.049v-7.357h-0.354
			C173.411,23.784,170.517,24.37,168.16,25.525z"/>
		<path fill="#005695" d="M213.508,26.243c-2.931-1.632-6.286-2.459-9.972-2.459c-2.738,0-5.295,0.524-7.601,1.559
			c-2.012,0.901-3.752,2.189-5.183,3.837V11.895h-7.524v50.579h7.241v-5.286c1.437,1.726,3.196,3.084,5.246,4.046
			c2.355,1.107,4.987,1.668,7.82,1.668c3.688,0,7.041-0.828,9.972-2.46c2.931-1.635,5.259-3.962,6.915-6.917
			c1.657-2.949,2.497-6.388,2.497-10.22c0-3.831-0.84-7.253-2.497-10.181C218.767,30.193,216.438,27.878,213.508,26.243z
			 M202.969,30.457c2.341,0,4.466,0.534,6.321,1.585c1.852,1.053,3.336,2.572,4.41,4.515c1.078,1.948,1.624,4.217,1.624,6.748
			s-0.546,4.8-1.624,6.752c-1.076,1.945-2.561,3.477-4.414,4.552c-1.853,1.075-3.979,1.622-6.317,1.622
			c-2.294,0-4.411-0.547-6.286-1.624c-1.876-1.073-3.359-2.604-4.41-4.547c-1.055-1.95-1.59-4.223-1.59-6.755s0.535-4.803,1.59-6.75
			c1.05-1.941,2.533-3.458,4.407-4.511C198.557,30.991,200.674,30.457,202.969,30.457z"/>
		<path fill="#005695" d="M242.83,23.784c-3.049,0-5.975,0.424-8.694,1.258c-2.729,0.838-5.111,2.066-7.076,3.648l-0.232,0.187
			l3.193,5.748l0.328-0.275c1.426-1.196,3.203-2.167,5.283-2.883c2.084-0.718,4.243-1.082,6.418-1.082
			c3.207,0,5.66,0.757,7.289,2.25c1.619,1.486,2.441,3.667,2.441,6.481v0.995h-10.438c-5.314,0-9.263,1.042-11.732,3.099
			c-2.487,2.074-3.747,4.853-3.747,8.26c0,3.412,1.322,6.204,3.931,8.299c2.585,2.079,6.063,3.133,10.342,3.133
			c2.92,0,5.486-0.475,7.632-1.414c1.79-0.788,3.255-1.877,4.368-3.25v4.236h7.169V39.4c0-5.141-1.436-9.075-4.268-11.688
			C252.212,25.106,248.105,23.784,242.83,23.784z M251.78,45.716v4.834c-0.823,2.018-2.15,3.599-3.949,4.7
			c-1.83,1.122-4.037,1.689-6.561,1.689c-2.516,0-4.5-0.525-5.898-1.563c-1.383-1.028-2.057-2.399-2.057-4.189
			c0-3.682,2.717-5.471,8.31-5.471H251.78z"/>
		<path fill="#005695" d="M285.452,23.784c-3.018,0-5.754,0.537-8.132,1.593c-2.047,0.909-3.75,2.17-5.077,3.758V24.14h-7.24v38.334
			h7.524V42.735c0-3.906,1.042-6.937,3.094-9.011c2.05-2.073,4.903-3.125,8.481-3.125c3.148,0,5.596,0.894,7.27,2.656
			c1.68,1.772,2.532,4.459,2.532,7.988v21.229h7.522v-22.01c0-5.417-1.458-9.6-4.329-12.423
			C294.224,25.216,290.308,23.784,285.452,23.784z"/>
		<path fill="#005695" d="M142.804,45.36c0,3.532-0.853,6.233-2.53,8.028c-1.611,1.719-4.264,2.673-7.468,2.688
			c-3.208-0.016-5.861-0.97-7.47-2.688c-1.679-1.793-2.53-4.494-2.53-8.028V24.143h-7.523v21.998c0,5.472,1.494,9.678,4.439,12.501
			c2.816,2.701,7.504,4.25,12.863,4.25h0.437c5.359,0,10.048-1.549,12.863-4.25c2.946-2.825,4.439-7.03,4.439-12.501V24.143h-7.521
			V45.36z"/>
	</g>
	<g>
		<g>
			<path fill-rule="evenodd" clip-rule="evenodd" fill="#005695" d="M22.898,61.412c0,0.584-0.478,1.062-1.061,1.062H1.432
				c-0.583,0-1.061-0.478-1.061-1.062V1.061C0.371,0.478,0.849,0,1.432,0h20.406c0.583,0,1.061,0.478,1.061,1.061V61.412z"/>
		</g>
		<g>
			<path fill-rule="evenodd" clip-rule="evenodd" fill="#005695" d="M93.09,61.412c0,0.584-0.478,1.062-1.061,1.062h-20.41
				c-0.584,0-1.062-0.478-1.062-1.062V1.061C70.558,0.478,71.035,0,71.619,0h20.41c0.583,0,1.061,0.478,1.061,1.061V61.412z"/>
		</g>
		<g>
			<path fill-rule="evenodd" clip-rule="evenodd" fill="#8DC63F" d="M58,50.513c0,0.592-0.484,1.076-1.076,1.076H36.545
				c-0.592,0-1.076-0.484-1.076-1.076V1.077C35.469,0.484,35.953,0,36.545,0h20.379C57.516,0,58,0.484,58,1.077V50.513z"/>
		</g>
	</g>
</g>
</svg>
